<svg width="337" height="121" viewBox="0 0 337 121" fill="none" xmlns="http://www.w3.org/2000/svg">
<path d="M63.8405 96.352L0.7365 73.056V53.344L63.8405 30.048V48.736L7.9045 68.576V57.824L63.8405 77.664V96.352ZM99.8565 109.792C93.2858 109.792 87.3125 108.683 81.9365 106.464C76.6458 104.16 72.2512 100.875 68.7525 96.608L82.5765 80.224C84.9658 83.296 87.4405 85.6427 90.0005 87.264C92.5605 88.8 95.2485 89.568 98.0645 89.568C105.574 89.568 109.329 85.216 109.329 76.512V37.984H78.3525V18.4H134.417V74.976C134.417 86.6667 131.473 95.4133 125.585 101.216C119.697 106.933 111.121 109.792 99.8565 109.792ZM171.107 109.792C164.536 109.792 158.563 108.683 153.187 106.464C147.896 104.16 143.501 100.875 140.002 96.608L153.827 80.224C156.216 83.296 158.691 85.6427 161.251 87.264C163.811 88.8 166.499 89.568 169.315 89.568C176.824 89.568 180.579 85.216 180.579 76.512V37.984H149.603V18.4H205.667V74.976C205.667 86.6667 202.723 95.4133 196.835 101.216C190.947 106.933 182.371 109.792 171.107 109.792ZM207.826 120.8L250.067 0.223991H271.699L229.458 120.8H207.826ZM273.112 96.352V77.664L329.176 57.824V68.576L273.112 48.736V30.048L336.215 53.344V73.056L273.112 96.352Z" fill="white"/>
</svg>
